<svg width="152" height="152" viewBox="0 0 152 152" fill="none" xmlns="http://www.w3.org/2000/svg">
<rect width="152" height="152" fill="#EEEEEE"/>
<path d="M53.3624 51.3C55.7124 51.3 58.0874 51.5 60.4874 51.9C62.9374 52.25 64.8874 52.725 66.3374 53.325C66.7874 53.475 67.0624 53.675 67.1624 53.925C67.3124 54.125 67.4124 54.5 67.4624 55.05L68.4374 65.475C68.4374 65.625 68.3124 65.725 68.0624 65.775C67.8124 65.825 67.6374 65.75 67.5374 65.55C66.1374 61.45 64.1374 58.325 61.5374 56.175C58.9374 53.975 55.8124 52.875 52.1624 52.875C48.7624 52.875 45.7124 53.8 43.0124 55.65C40.3624 57.45 38.2624 60.05 36.7124 63.45C35.2124 66.85 34.4624 70.825 34.4624 75.375C34.4624 79.975 35.2374 84.025 36.7874 87.525C38.3874 90.975 40.5624 93.65 43.3124 95.55C46.1124 97.4 49.3124 98.325 52.9124 98.325C56.3624 98.325 59.2624 97.4 61.6124 95.55C63.9624 93.65 66.1874 90.55 68.2874 86.25C68.3374 86.1 68.4874 86.05 68.7374 86.1C68.9874 86.15 69.1124 86.25 69.1124 86.4L67.9874 95.7C67.8874 96.3 67.7874 96.7 67.6874 96.9C67.5874 97.05 67.3124 97.225 66.8624 97.425C62.2624 99.075 57.6124 99.9 52.9124 99.9C47.5624 99.9 42.7624 98.9 38.5124 96.9C34.3124 94.85 31.0124 92 28.6124 88.35C26.2124 84.7 25.0124 80.55 25.0124 75.9C25.0124 71.15 26.2374 66.925 28.6874 63.225C31.1874 59.475 34.5874 56.55 38.8874 54.45C43.2374 52.35 48.0624 51.3 53.3624 51.3ZM127.287 98.1C127.437 98.1 127.512 98.25 127.512 98.55C127.512 98.85 127.437 99 127.287 99C125.537 99 124.137 98.975 123.087 98.925L117.312 98.85L110.562 98.925C109.662 98.975 108.437 99 106.887 99C106.737 99 106.662 98.85 106.662 98.55C106.662 98.25 106.737 98.1 106.887 98.1C108.737 98.1 110.087 97.975 110.937 97.725C111.787 97.475 112.362 97 112.662 96.3C112.962 95.6 113.112 94.475 113.112 92.925V75.675H88.8872V92.925C88.8872 94.425 89.0372 95.55 89.3372 96.3C89.6372 97 90.2122 97.475 91.0622 97.725C91.9122 97.975 93.2622 98.1 95.1122 98.1C95.2122 98.1 95.2622 98.25 95.2622 98.55C95.2622 98.85 95.2122 99 95.1122 99C93.3622 99 91.9622 98.975 90.9122 98.925L84.3872 98.85L78.7622 98.925C77.7622 98.975 76.3872 99 74.6372 99C74.5372 99 74.4872 98.85 74.4872 98.55C74.4872 98.25 74.5372 98.1 74.6372 98.1C76.3872 98.1 77.6622 97.975 78.4622 97.725C79.2622 97.475 79.8122 97 80.1122 96.3C80.4122 95.55 80.5622 94.425 80.5622 92.925V58.2C80.5622 56.7 80.4122 55.6 80.1122 54.9C79.8122 54.2 79.2622 53.725 78.4622 53.475C77.7122 53.175 76.4872 53.025 74.7872 53.025C74.6372 53.025 74.5622 52.875 74.5622 52.575C74.5622 52.275 74.6372 52.125 74.7872 52.125L78.8372 52.2C81.1372 52.3 82.9872 52.35 84.3872 52.35C86.2872 52.35 88.4872 52.3 90.9872 52.2L95.1122 52.125C95.2122 52.125 95.2622 52.275 95.2622 52.575C95.2622 52.875 95.2122 53.025 95.1122 53.025C93.3122 53.025 91.9872 53.175 91.1372 53.475C90.2872 53.775 89.6872 54.3 89.3372 55.05C89.0372 55.75 88.8872 56.85 88.8872 58.35V73.575H113.112V58.35C113.112 56.85 112.962 55.75 112.662 55.05C112.362 54.3 111.787 53.775 110.937 53.475C110.087 53.175 108.737 53.025 106.887 53.025C106.737 53.025 106.662 52.875 106.662 52.575C106.662 52.275 106.737 52.125 106.887 52.125L110.562 52.2C113.062 52.3 115.312 52.35 117.312 52.35C118.662 52.35 120.587 52.3 123.087 52.2L127.287 52.125C127.437 52.125 127.512 52.275 127.512 52.575C127.512 52.875 127.437 53.025 127.287 53.025C125.587 53.025 124.312 53.175 123.462 53.475C122.662 53.725 122.112 54.2 121.812 54.9C121.562 55.6 121.437 56.7 121.437 58.2V92.925C121.437 94.425 121.562 95.55 121.812 96.3C122.112 97 122.662 97.475 123.462 97.725C124.262 97.975 125.537 98.1 127.287 98.1Z" fill="#A87B62"/>
</svg>
